<svg id="visual" viewBox="0 0 1000 100" width="1000" height="100" xmlns="http://www.w3.org/2000/svg" xmlns:xlink="http://www.w3.org/1999/xlink" version="1.1"><rect x="0" y="0" width="1000" height="100" fill="#033a65"></rect><path d="M0 48L16.7 49.2C33.3 50.3 66.7 52.7 100 53C133.3 53.3 166.7 51.7 200 45.8C233.3 40 266.7 30 300 27C333.3 24 366.7 28 400 31C433.3 34 466.7 36 500 39C533.3 42 566.7 46 600 46C633.3 46 666.7 42 700 43.8C733.3 45.7 766.7 53.3 800 55.7C833.3 58 866.7 55 900 51.3C933.3 47.7 966.7 43.3 983.3 41.2L1000 39L1000 101L983.3 101C966.7 101 933.3 101 900 101C866.7 101 833.3 101 800 101C766.7 101 733.3 101 700 101C666.7 101 633.3 101 600 101C566.7 101 533.3 101 500 101C466.7 101 433.3 101 400 101C366.7 101 333.3 101 300 101C266.7 101 233.3 101 200 101C166.7 101 133.3 101 100 101C66.7 101 33.3 101 16.7 101L0 101Z" fill="#033a65"></path><path d="M0 57L16.7 53.3C33.3 49.7 66.7 42.3 100 38C133.3 33.7 166.7 32.3 200 33.2C233.3 34 266.7 37 300 36.5C333.3 36 366.7 32 400 31.7C433.3 31.3 466.7 34.7 500 37.7C533.3 40.7 566.7 43.3 600 47.2C633.3 51 666.7 56 700 55.5C733.3 55 766.7 49 800 46.2C833.3 43.3 866.7 43.7 900 48.2C933.3 52.7 966.7 61.3 983.3 65.7L1000 70L1000 101L983.3 101C966.7 101 933.3 101 900 101C866.7 101 833.3 101 800 101C766.7 101 733.3 101 700 101C666.7 101 633.3 101 600 101C566.7 101 533.3 101 500 101C466.7 101 433.3 101 400 101C366.7 101 333.3 101 300 101C266.7 101 233.3 101 200 101C166.7 101 133.3 101 100 101C66.7 101 33.3 101 16.7 101L0 101Z" fill="#3c648d"></path><path d="M0 77L16.7 77.5C33.3 78 66.7 79 100 74.8C133.3 70.7 166.7 61.3 200 56.5C233.3 51.7 266.7 51.3 300 56.3C333.3 61.3 366.7 71.7 400 74C433.3 76.3 466.7 70.7 500 65.5C533.3 60.3 566.7 55.7 600 52.5C633.3 49.3 666.7 47.7 700 52.5C733.3 57.3 766.7 68.7 800 72.3C833.3 76 866.7 72 900 68C933.3 64 966.7 60 983.3 58L1000 56L1000 101L983.3 101C966.7 101 933.3 101 900 101C866.7 101 833.3 101 800 101C766.7 101 733.3 101 700 101C666.7 101 633.3 101 600 101C566.7 101 533.3 101 500 101C466.7 101 433.3 101 400 101C366.7 101 333.3 101 300 101C266.7 101 233.3 101 200 101C166.7 101 133.3 101 100 101C66.7 101 33.3 101 16.7 101L0 101Z" fill="#6a92b7"></path><path d="M0 89L16.7 88.5C33.3 88 66.7 87 100 86.7C133.3 86.3 166.7 86.7 200 88.2C233.3 89.7 266.7 92.3 300 90.2C333.3 88 366.7 81 400 75.8C433.3 70.7 466.7 67.3 500 66.8C533.3 66.3 566.7 68.7 600 69C633.3 69.3 666.7 67.7 700 70.5C733.3 73.3 766.7 80.7 800 83.7C833.3 86.7 866.7 85.3 900 85.3C933.3 85.3 966.7 86.7 983.3 87.3L1000 88L1000 101L983.3 101C966.7 101 933.3 101 900 101C866.7 101 833.3 101 800 101C766.7 101 733.3 101 700 101C666.7 101 633.3 101 600 101C566.7 101 533.3 101 500 101C466.7 101 433.3 101 400 101C366.7 101 333.3 101 300 101C266.7 101 233.3 101 200 101C166.7 101 133.3 101 100 101C66.7 101 33.3 101 16.7 101L0 101Z" fill="#9bc2e2"></path></svg>