<svg id="visual" viewBox="0 0 1000 100" width="1000" height="100" xmlns="http://www.w3.org/2000/svg" xmlns:xlink="http://www.w3.org/1999/xlink" version="1.1"><rect x="0" y="0" width="1000" height="100" fill="#033a65"></rect><path d="M0 12L23.8 15.5C47.7 19 95.3 26 143 29.7C190.7 33.3 238.3 33.7 286 32.7C333.7 31.7 381.3 29.3 428.8 27.3C476.3 25.3 523.7 23.7 571.2 20.8C618.7 18 666.3 14 714 12.3C761.7 10.7 809.3 11.3 857 14.8C904.7 18.3 952.3 24.7 976.2 27.8L1000 31L1000 101L976.2 101C952.3 101 904.7 101 857 101C809.3 101 761.7 101 714 101C666.3 101 618.7 101 571.2 101C523.7 101 476.3 101 428.8 101C381.3 101 333.7 101 286 101C238.3 101 190.7 101 143 101C95.3 101 47.7 101 23.8 101L0 101Z" fill="#033a65"></path><path d="M0 33L23.8 31.3C47.7 29.7 95.3 26.3 143 26.5C190.7 26.7 238.3 30.3 286 33C333.7 35.7 381.3 37.3 428.8 39.7C476.3 42 523.7 45 571.2 45C618.7 45 666.3 42 714 39.5C761.7 37 809.3 35 857 36C904.7 37 952.3 41 976.2 43L1000 45L1000 101L976.2 101C952.3 101 904.7 101 857 101C809.3 101 761.7 101 714 101C666.3 101 618.7 101 571.2 101C523.7 101 476.3 101 428.8 101C381.3 101 333.7 101 286 101C238.3 101 190.7 101 143 101C95.3 101 47.7 101 23.8 101L0 101Z" fill="#255b89"></path><path d="M0 51L23.8 54.2C47.7 57.3 95.3 63.7 143 67.5C190.7 71.3 238.3 72.7 286 69.2C333.7 65.7 381.3 57.3 428.8 53C476.3 48.7 523.7 48.3 571.2 50.5C618.7 52.7 666.3 57.3 714 58.3C761.7 59.3 809.3 56.7 857 56C904.7 55.3 952.3 56.7 976.2 57.3L1000 58L1000 101L976.2 101C952.3 101 904.7 101 857 101C809.3 101 761.7 101 714 101C666.3 101 618.7 101 571.2 101C523.7 101 476.3 101 428.8 101C381.3 101 333.7 101 286 101C238.3 101 190.7 101 143 101C95.3 101 47.7 101 23.8 101L0 101Z" fill="#417fad"></path><path d="M0 86L23.8 82.7C47.7 79.3 95.3 72.7 143 72.8C190.7 73 238.3 80 286 79.7C333.7 79.3 381.3 71.7 428.8 72.8C476.3 74 523.7 84 571.2 88.7C618.7 93.3 666.3 92.7 714 90C761.7 87.3 809.3 82.7 857 78.8C904.7 75 952.3 72 976.2 70.5L1000 69L1000 101L976.2 101C952.3 101 904.7 101 857 101C809.3 101 761.7 101 714 101C666.3 101 618.7 101 571.2 101C523.7 101 476.3 101 428.8 101C381.3 101 333.7 101 286 101C238.3 101 190.7 101 143 101C95.3 101 47.7 101 23.8 101L0 101Z" fill="#5da4d3"></path></svg>