<svg id="visual" viewBox="0 0 1000 100" width="1000" height="100" xmlns="http://www.w3.org/2000/svg" xmlns:xlink="http://www.w3.org/1999/xlink" version="1.1"><rect x="0" y="0" width="1000" height="100" fill="#9a3600"></rect><path d="M0 24L77 28L154 28L231 29L308 8L385 28L462 13L538 10L615 29L692 8L769 18L846 8L923 11L1000 14L1000 101L923 101L846 101L769 101L692 101L615 101L538 101L462 101L385 101L308 101L231 101L154 101L77 101L0 101Z" fill="#9a3600"></path><path d="M0 38L77 34L154 34L231 34L308 28L385 48L462 49L538 27L615 44L692 37L769 27L846 49L923 46L1000 36L1000 101L923 101L846 101L769 101L692 101L615 101L538 101L462 101L385 101L308 101L231 101L154 101L77 101L0 101Z" fill="#af5718"></path><path d="M0 60L77 57L154 65L231 53L308 69L385 64L462 69L538 60L615 68L692 62L769 49L846 61L923 60L1000 63L1000 101L923 101L846 101L769 101L692 101L615 101L538 101L462 101L385 101L308 101L231 101L154 101L77 101L0 101Z" fill="#c47730"></path><path d="M0 75L77 84L154 70L231 69L308 82L385 70L462 81L538 81L615 73L692 77L769 82L846 90L923 86L1000 73L1000 101L923 101L846 101L769 101L692 101L615 101L538 101L462 101L385 101L308 101L231 101L154 101L77 101L0 101Z" fill="#d8964b"></path></svg>