<svg id="visual" viewBox="0 0 1000 100" width="1000" height="100" xmlns="http://www.w3.org/2000/svg" xmlns:xlink="http://www.w3.org/1999/xlink" version="1.1"><rect x="0" y="0" width="1000" height="100" fill="#9a3600"></rect><path d="M0 74L77 70L154 70L231 69L308 90L385 70L462 85L538 88L615 69L692 90L769 80L846 90L923 87L1000 84L1000 0L923 0L846 0L769 0L692 0L615 0L538 0L462 0L385 0L308 0L231 0L154 0L77 0L0 0Z" fill="#9a3600"></path><path d="M0 60L77 64L154 64L231 64L308 70L385 50L462 49L538 71L615 54L692 61L769 71L846 49L923 52L1000 62L1000 0L923 0L846 0L769 0L692 0L615 0L538 0L462 0L385 0L308 0L231 0L154 0L77 0L0 0Z" fill="#b26329"></path><path d="M0 38L77 41L154 33L231 45L308 29L385 34L462 29L538 38L615 30L692 36L769 49L846 37L923 38L1000 35L1000 0L923 0L846 0L769 0L692 0L615 0L538 0L462 0L385 0L308 0L231 0L154 0L77 0L0 0Z" fill="#c98c54"></path><path d="M0 23L77 14L154 28L231 29L308 16L385 28L462 17L538 17L615 25L692 21L769 16L846 8L923 12L1000 25L1000 0L923 0L846 0L769 0L692 0L615 0L538 0L462 0L385 0L308 0L231 0L154 0L77 0L0 0Z" fill="#e0b583"></path></svg>